<?xml version="1.0" standalone="no"?>
<!DOCTYPE svg PUBLIC "-//W3C//DTD SVG 20010904//EN"
 "http://www.w3.org/TR/2001/REC-SVG-20010904/DTD/svg10.dtd">
<svg version="1.0" xmlns="http://www.w3.org/2000/svg"
 width="316.000000pt" height="295.000000pt" viewBox="0 0 316.000000 295.000000"
 preserveAspectRatio="xMidYMid meet">
<metadata>
Created by potrace 1.16, written by Peter Selinger 2001-2019
</metadata>
<g transform="translate(0.000000,295.000000) scale(0.100000,-0.100000)"
fill="#000000" stroke="none">
<path d="M1343 2335 c-451 -57 -829 -105 -838 -107 -39 -7 -40 -30 -16 -230
13 -106 28 -199 33 -205 14 -17 73 -16 87 1 9 11 7 51 -8 172 -12 87 -19 159
-17 161 6 6 1568 195 1572 190 2 -2 12 -71 21 -153 9 -82 21 -155 26 -161 14
-18 86 -17 93 2 3 8 -4 101 -16 207 -25 210 -32 229 -84 227 -17 -1 -401 -47
-853 -104z m872 65 c7 -11 45 -309 45 -352 0 -18 -5 -28 -15 -28 -8 0 -15 3
-15 8 0 22 -40 325 -43 328 -2 2 -59 -3 -128 -12 -68 -8 -436 -53 -818 -99
-382 -47 -695 -86 -697 -88 -2 -2 5 -73 16 -158 24 -184 24 -189 5 -189 -16 0
-17 5 -45 219 -11 85 -17 157 -14 160 3 3 384 54 847 112 463 59 845 107 849
108 4 0 10 -3 13 -9z"/>
<path d="M762 1758 c-16 -16 -16 -160 0 -176 7 -7 39 -12 75 -12 l63 0 2 -202
3 -203 95 0 95 0 3 202 2 202 73 3 72 3 0 95 0 95 -235 3 c-175 2 -239 -1
-248 -10z m458 -88 l0 -70 -75 0 -75 0 0 -205 0 -206 -67 3 -68 3 -3 203 -2
202 -70 0 -70 0 0 70 0 70 215 0 215 0 0 -70z"/>
<path d="M1285 1757 c-3 -7 -4 -143 -3 -302 l3 -290 95 0 95 0 3 88 3 87 71 0
c90 0 144 24 184 82 25 36 29 52 32 123 3 67 0 89 -16 121 -24 47 -57 79 -95
93 -42 16 -366 15 -372 -2z m361 -36 c97 -44 124 -195 52 -287 -34 -42 -93
-64 -175 -64 l-73 0 0 -90 0 -90 -70 0 -70 0 0 275 0 275 148 0 c122 0 154 -4
188 -19z"/>
<path d="M1805 1757 c-3 -7 -4 -143 -3 -302 l3 -290 175 -3 c96 -1 185 0 197
3 33 8 94 65 109 102 8 18 14 61 14 97 0 55 -4 69 -26 95 -21 26 -23 34 -14
52 7 13 11 50 8 90 -3 62 -7 72 -38 105 -56 58 -80 64 -260 64 -120 0 -162 -3
-165 -13z m345 -39 c55 -29 81 -64 87 -119 4 -35 0 -51 -19 -78 l-23 -34 32
-32 c54 -53 54 -143 1 -210 -37 -47 -72 -55 -243 -55 l-155 0 0 275 0 275 138
0 c123 0 142 -2 182 -22z"/>
<path d="M1960 1360 l0 -50 69 0 c74 0 101 14 101 50 0 36 -27 50 -101 50
l-69 0 0 -50z"/>
<path d="M2507 1053 c-11 -10 -8 -79 9 -211 9 -68 14 -126 11 -129 -6 -6
-1567 -196 -1572 -191 -2 1 -11 66 -20 143 -21 179 -23 185 -74 185 -22 0 -43
-5 -47 -11 -12 -20 39 -400 56 -422 16 -19 25 -18 881 88 617 76 868 111 879
121 13 13 12 38 -8 216 -13 111 -25 205 -28 210 -6 10 -78 11 -87 1z m79 -213
c12 -102 20 -187 17 -190 -8 -8 -1698 -218 -1705 -211 -4 3 -18 90 -31 194
-22 179 -23 187 -5 187 10 0 18 -3 18 -7 0 -35 42 -319 47 -324 8 -8 1630 185
1640 194 2 3 -5 76 -17 163 -24 192 -24 186 -3 182 15 -3 21 -31 39 -188z"/>
</g>
</svg>
